<svg width="20" height="20" viewBox="0 0 20 20" fill="none" xmlns="http://www.w3.org/2000/svg">
<path d="M18.2422 2.38281H6.44531C5.47578 2.38281 4.6875 3.17148 4.6875 4.14062C4.6875 5.11016 5.47578 5.89844 6.44531 5.89844H18.2422C19.2113 5.89844 20 5.11016 20 4.14062C20 3.17148 19.2113 2.38281 18.2422 2.38281Z" fill="white"/>
<path d="M18.2422 8.24219H6.44531C5.47578 8.24219 4.6875 9.03086 4.6875 10C4.6875 10.9695 5.47578 11.7578 6.44531 11.7578H18.2422C19.2113 11.7578 20 10.9695 20 10C20 9.03086 19.2113 8.24219 18.2422 8.24219Z" fill="white"/>
<path d="M18.2422 14.1016H6.44531C5.47578 14.1016 4.6875 14.8902 4.6875 15.8594C4.6875 16.8289 5.47578 17.6172 6.44531 17.6172H18.2422C19.2113 17.6172 20 16.8289 20 15.8594C20 14.8902 19.2113 14.1016 18.2422 14.1016Z" fill="white"/>
<path d="M1.75781 2.38281C0.788281 2.38281 0 3.17148 0 4.14062C0 5.11016 0.788281 5.89844 1.75781 5.89844C2.72695 5.89844 3.51562 5.11016 3.51562 4.14062C3.51562 3.17148 2.72695 2.38281 1.75781 2.38281Z" fill="white"/>
<path d="M1.75781 8.24219C0.788281 8.24219 0 9.03086 0 10C0 10.9695 0.788281 11.7578 1.75781 11.7578C2.72695 11.7578 3.51562 10.9695 3.51562 10C3.51562 9.03086 2.72695 8.24219 1.75781 8.24219Z" fill="white"/>
<path d="M1.75781 14.1016C0.788281 14.1016 0 14.8902 0 15.8594C0 16.8289 0.788281 17.6172 1.75781 17.6172C2.72695 17.6172 3.51562 16.8289 3.51562 15.8594C3.51562 14.8902 2.72695 14.1016 1.75781 14.1016Z" fill="white"/>
</svg>
