<svg width="12" height="18" viewBox="0 0 12 18" fill="none" xmlns="http://www.w3.org/2000/svg">
<path d="M6.75 2.25V0.75C6.75 0.551088 6.67098 0.360322 6.53033 0.21967C6.38967 0.0790176 6.19891 0 6 0C5.80108 0 5.61032 0.0790176 5.46967 0.21967C5.32901 0.360322 5.25 0.551088 5.25 0.75V2.25C3.8581 2.25159 2.52366 2.80522 1.53944 3.78944C0.555221 4.77367 0.00158802 6.1081 0 7.5V12C0 13.5913 0.632141 15.1174 1.75736 16.2426C2.88258 17.3679 4.4087 18 6 18C7.59129 18 9.11742 17.3679 10.2426 16.2426C11.3679 15.1174 12 13.5913 12 12V7.5C11.9984 6.1081 11.4448 4.77367 10.4606 3.78944C9.47633 2.80522 8.14189 2.25159 6.75 2.25ZM10.5 12C10.5 13.1935 10.0259 14.3381 9.18198 15.182C8.33806 16.0259 7.19347 16.5 6 16.5C4.80652 16.5 3.66193 16.0259 2.81802 15.182C1.9741 14.3381 1.5 13.1935 1.5 12V7.5C1.50119 6.5058 1.89666 5.55267 2.59966 4.84966C3.30267 4.14666 4.2558 3.75119 5.25 3.75H6.75C7.74419 3.75119 8.69733 4.14666 9.40033 4.84966C10.1033 5.55267 10.4988 6.5058 10.5 7.5V12Z" fill="white"/>
</svg>
